#define BMS_ERR_width 18
#define BMS_ERR_height 18
static unsigned char BMS_ERR_bits[] = {
   0x00, 0x00, 0x00, 0x00, 0x00, 0x00, 0x00, 0x00, 0x00, 0xde, 0xcc, 0x01,
   0xd2, 0x2c, 0x00, 0xce, 0x6c, 0x00, 0x52, 0x8b, 0x01, 0x52, 0x0b, 0x01,
   0x4e, 0xe9, 0x00, 0x00, 0x00, 0x00, 0x10, 0x23, 0x00, 0x18, 0x63, 0x00,
   0x08, 0x43, 0x00, 0x08, 0x43, 0x00, 0x08, 0x40, 0x00, 0x18, 0x63, 0x00,
   0x10, 0x23, 0x00, 0x00, 0x00, 0x00 };
