#define HV_batt_width 16
#define HV_batt_height 16
static unsigned char HV_batt_bits[] = {
   0xc0, 0x03, 0xc0, 0x03, 0xf0, 0x0f, 0x08, 0x10, 0x08, 0x10, 0xe8, 0x17,
   0xe8, 0x17, 0x08, 0x10, 0xe8, 0x17, 0xe8, 0x17, 0x08, 0x10, 0xe8, 0x17,
   0xe8, 0x17, 0x08, 0x10, 0xf0, 0x0f, 0x00, 0x00 };
