#define LV_Batt_width 16
#define LV_Batt_height 16
static unsigned char LV_Batt_bits[] = {
   0x00, 0x00, 0x00, 0x00, 0x00, 0x00, 0x18, 0x18, 0x18, 0x18, 0xfe, 0x7f,
   0xfe, 0x7f, 0x32, 0x4f, 0x32, 0x4f, 0x72, 0x66, 0xf2, 0x76, 0x82, 0x70,
   0x86, 0x79, 0xfe, 0x7f, 0xfe, 0x7f, 0x00, 0x00 };
