#define o_fok_width 18
#define o_fok_height 18
static unsigned char o_fok_bits[] = {
   0x00, 0x00, 0x00, 0x00, 0x03, 0x00, 0x00, 0x03, 0x00, 0x80, 0x04, 0x00,
   0xc0, 0x0c, 0x00, 0x40, 0x08, 0x00, 0x60, 0x1b, 0x00, 0x20, 0x13, 0x00,
   0x30, 0x33, 0x00, 0x10, 0x23, 0x00, 0x18, 0x63, 0x00, 0x08, 0x40, 0x00,
   0x0c, 0xc3, 0x00, 0x04, 0x83, 0x00, 0x06, 0x80, 0x01, 0xfc, 0xff, 0x00,
   0xf8, 0x7f, 0x00, 0x00, 0x00, 0x00 };
