#define OK_icon_width 16
#define OK_icon_height 16
static unsigned char OK_icon_bits[] = {
   0x00, 0x00, 0x00, 0x00, 0x00, 0x00, 0x00, 0x00, 0x8e, 0x34, 0x91, 0x72,
   0x91, 0xf2, 0x91, 0xf1, 0x91, 0xf2, 0x91, 0x74, 0x8e, 0x34, 0x00, 0x00,
   0x00, 0x00, 0x00, 0x00, 0x00, 0x00, 0x00, 0x00 };
