#define SDCard_width 16
#define SDCard_height 16
static unsigned char SDCard_bits[] = {
   0x00, 0x00, 0xfc, 0x03, 0xfc, 0x07, 0xfc, 0x0f, 0xf8, 0x1f, 0x78, 0x1f,
   0x78, 0x1f, 0x7c, 0x1f, 0x7c, 0x1f, 0x7c, 0x1f, 0xfc, 0x1f, 0xfc, 0x1f,
   0x7c, 0x1f, 0xfc, 0x1f, 0xfc, 0x1f, 0x00, 0x00 };
