#define IMD_ERR_width 18
#define IMD_ERR_height 18
static unsigned char IMD_ERR_bits[] = {
   0x00, 0x00, 0x00, 0x00, 0x00, 0x00, 0x00, 0x00, 0x00, 0x34, 0x73, 0x00,
   0x34, 0x93, 0x00, 0x34, 0x93, 0x00, 0xd4, 0x92, 0x00, 0xd4, 0x92, 0x00,
   0x54, 0x72, 0x00, 0x00, 0x00, 0x00, 0x10, 0x23, 0x00, 0x18, 0x63, 0x00,
   0x08, 0x43, 0x00, 0x08, 0x43, 0x00, 0x08, 0x40, 0x00, 0x18, 0x63, 0x00,
   0x10, 0x23, 0x00, 0x00, 0x00, 0x00 };
