#define MC_ERR_width 18
#define MC_ERR_height 18
static unsigned char MC_ERR_bits[] = {
   0x00, 0x00, 0x00, 0x00, 0x00, 0x00, 0x0c, 0x73, 0x00, 0x0c, 0x9b, 0x00,
   0x94, 0x0a, 0x00, 0x94, 0x0a, 0x00, 0x64, 0x0a, 0x00, 0x64, 0x9a, 0x00,
   0x64, 0x72, 0x00, 0x00, 0x00, 0x00, 0x10, 0x23, 0x00, 0x18, 0x63, 0x00,
   0x08, 0x43, 0x00, 0x08, 0x43, 0x00, 0x08, 0x40, 0x00, 0x18, 0x63, 0x00,
   0x10, 0x23, 0x00, 0x00, 0x00, 0x00 };
