#define water_temp_width 18
#define water_temp_height 18
static unsigned char water_temp_bits[] = {
   0x00, 0x00, 0x00, 0x00, 0x03, 0x00, 0x80, 0x07, 0x00, 0x80, 0xff, 0x00,
   0x80, 0xff, 0x00, 0x80, 0x07, 0x00, 0x80, 0x07, 0x00, 0x80, 0xff, 0x00,
   0x80, 0xff, 0x00, 0x80, 0x07, 0x00, 0x81, 0x07, 0x00, 0xe7, 0x1f, 0x00,
   0xbc, 0xf7, 0x03, 0x80, 0x07, 0x00, 0xc1, 0x0f, 0x00, 0xf3, 0xbf, 0x03,
   0xde, 0xef, 0x00, 0x80, 0x07, 0x00 };
